# Blender 4.1.1
# www.blender.org
mtllib milaHEAD.mtl
o Cube
v 1.000000 -0.475808 1.596934
v 0.000000 -0.089600 1.596934
v -1.000000 -0.862017 1.596934
v 1.000000 -0.862017 1.596934
v 1.000000 -1.248226 1.596934
v -1.000000 -1.248226 1.596934
v -1.000000 -0.475808 1.596934
v 1.000000 -0.475808 1.596934
v -1.000000 -0.089600 1.596934
v 0.778401 -1.463267 1.818533
v 1.000000 -1.634434 1.596934
v 1.000000 -0.089600 1.596934
v -1.000000 -1.634434 1.596934
v -0.620755 0.067618 0.655224
v -0.620755 1.034914 0.655224
v -0.620755 0.067618 -0.653674
v -0.620755 1.034914 -0.653674
v 0.620755 0.067618 0.655224
v 0.620755 1.034914 0.655224
v 0.620755 0.067618 -0.653674
v 0.620755 1.034914 -0.653674
v -0.620755 0.067618 0.000775
v 0.620755 0.067618 0.000775
v -0.620755 0.067618 0.327999
v 0.620755 1.034914 0.327999
v -0.620755 1.034914 0.327999
v 0.620755 0.067618 0.327999
v -0.620755 1.034914 -0.326449
v 0.620755 0.067618 -0.326449
v -0.620755 0.067618 -0.326449
v 0.620755 1.034914 -0.326449
v 0.000000 0.067618 -0.653674
v 0.000000 1.034914 -0.653674
v 0.000000 0.067618 0.655224
v 0.000000 1.034914 0.655224
v 0.000000 1.034914 0.000775
v 0.000000 0.067618 0.000775
v 0.000000 1.034914 0.327999
v 0.000000 0.067618 0.327999
v 0.000000 0.067618 -0.326449
v 0.000000 1.034914 -0.326449
v 0.310377 1.034914 -0.653674
v 0.310377 0.067618 0.655224
v 0.310377 1.034914 0.000775
v 0.310377 1.034914 0.327999
v 0.310377 1.034914 -0.326449
v 0.310377 0.067618 -0.653674
v 0.310377 1.034914 0.655224
v 0.310377 0.067618 0.000775
v 0.310377 0.067618 0.327999
v 0.310377 0.067618 -0.326449
v -0.311524 0.067618 -0.653674
v -0.311524 1.034914 0.655224
v -0.311524 0.067618 0.000775
v -0.311524 0.067618 0.327999
v -0.311524 0.067618 -0.326449
v -0.311524 1.034914 -0.653674
v -0.311524 0.067618 0.655224
v -0.311524 1.034914 0.000775
v -0.311524 1.034914 0.327999
v -0.311524 1.034914 -0.326449
v -0.620755 0.551266 0.655224
v -0.620755 0.551266 -0.653674
v 0.620755 0.551266 -0.653674
v 0.620755 0.551266 0.655224
v -0.620755 0.551266 0.327999
v 0.620755 0.551266 0.327999
v 0.620755 0.551266 -0.326449
v -0.620755 0.551266 -0.326449
v 0.000000 0.551266 0.655224
v 0.000000 0.551266 -0.653674
v 0.310377 0.551266 0.655224
v 0.310377 0.551266 -0.653674
v -0.311524 0.551266 -0.653674
v -0.311524 0.551266 0.655224
v -0.620755 0.309442 -0.653674
v 0.620755 0.309442 -0.653674
v 0.620755 0.309442 0.655224
v 0.620755 0.309442 0.000775
v -0.620755 0.309442 0.000775
v -0.620755 0.309442 0.327999
v 0.620755 0.309442 0.327999
v 0.620755 0.309442 -0.326449
v -0.620755 0.309442 -0.326449
v 0.000000 0.309442 0.655224
v 0.000000 0.309442 -0.653674
v 0.310377 0.309442 0.655224
v 0.310377 0.309442 -0.653674
v -0.311524 0.309442 -0.653674
v -0.311524 0.309442 0.655224
v -0.620755 0.309442 0.655224
v -0.620755 0.795484 0.655224
v -0.620755 0.795484 -0.653674
v 0.620755 0.795484 -0.653674
v 0.620755 0.795484 0.655224
v -0.620755 0.795484 0.327999
v 0.620755 0.795484 0.327999
v 0.620755 0.795484 -0.326449
v -0.620755 0.795484 -0.326449
v 0.000000 0.795484 0.655224
v 0.000000 0.795484 -0.653674
v 0.310377 0.795484 0.655224
v 0.310377 0.795484 -0.653674
v -0.311524 0.795484 -0.653674
v -0.311524 0.795484 0.655224
v 0.299097 0.069891 -0.658861
v -0.011281 0.069891 -0.658861
v -0.011281 0.311715 -0.658861
v 0.299097 0.311715 -0.658861
v -0.011281 0.553539 -0.658861
v 0.299097 0.553539 -0.658861
v 0.000000 0.309442 -0.830667
v 0.000000 0.067618 -0.830667
v -0.311524 0.067618 -0.830667
v -0.311524 0.309442 -0.830667
v -0.311524 0.551266 -0.830667
v 0.000000 0.551266 -0.830667
v 0.299097 0.069891 -0.835855
v -0.011281 0.069891 -0.835855
v -0.011281 0.311715 -0.835855
v 0.299097 0.311715 -0.835855
v -0.011281 0.553539 -0.835855
v 0.299097 0.553539 -0.835855
v 0.000000 0.309442 -1.002313
v 0.000000 0.067618 -1.002313
v -0.311524 0.067618 -1.002313
v -0.311524 0.309442 -1.002313
v -0.311524 0.551266 -1.002313
v 0.000000 0.551266 -1.002313
v 0.299097 0.069891 -1.007500
v -0.011281 0.069891 -1.007500
v -0.011281 0.311715 -1.007500
v 0.299097 0.311715 -1.007500
v -0.011281 0.553539 -1.007500
v 0.299097 0.553539 -1.007500
v -0.620755 1.109718 0.327999
v 0.620755 1.109718 -0.326449
v 0.310377 1.109718 0.000775
v 0.620755 1.109718 0.327999
v 0.310377 1.109718 0.327999
v -0.620755 1.109718 -0.326449
v 0.310377 1.109718 -0.326449
v -0.311524 1.109718 0.000775
v -0.311524 1.109718 0.327999
v -0.311524 1.109718 -0.326449
v -0.620755 1.218359 0.327999
v -0.620755 1.218359 0.000775
v 0.620755 1.218359 -0.326449
v 0.620755 1.218359 0.000775
v 0.310377 1.218359 0.000775
v 0.620755 1.218359 0.327999
v 0.310377 1.218359 0.327999
v -0.620755 1.218359 -0.326449
v 0.310377 1.218359 -0.326449
v -0.311524 1.218359 0.000775
v -0.311524 1.218359 0.327999
v -0.311524 1.218359 -0.326449
v 0.823705 1.034914 -0.326449
v 0.823705 1.034914 0.000775
v 0.823705 1.034914 0.327999
v 0.823705 0.795484 0.000775
v 0.823705 0.551266 0.000775
v 0.823705 0.795484 0.327999
v 0.823705 0.551266 0.327999
v 0.823705 0.795484 -0.326449
v 0.823705 0.551266 -0.326449
v 0.823705 0.309442 0.000775
v 0.823705 0.309442 0.327999
v 0.823705 0.309442 -0.326449
v 0.823705 1.109718 -0.326449
v 0.823705 1.109718 0.000775
v 0.823705 1.109718 0.327999
v 0.823705 1.218359 -0.326449
v 0.823705 1.218359 0.000775
v 0.823705 1.218359 0.327999
v -0.815193 1.034914 0.327999
v -0.815193 1.034914 0.000775
v -0.815193 1.109718 0.327999
v -0.815193 1.034914 -0.326449
v -0.815193 0.795484 0.000775
v -0.815193 0.551266 0.000775
v -0.815193 0.795484 0.327999
v -0.815193 0.551266 0.327999
v -0.815193 0.795484 -0.326449
v -0.815193 0.551266 -0.326449
v -0.815193 0.309442 0.000775
v -0.815193 0.309442 0.327999
v -0.815193 0.309442 -0.326449
v -0.815193 1.109718 0.000775
v -0.815193 1.218359 0.327999
v -0.815193 1.109718 -0.326449
v -0.815193 1.218359 0.000775
v -0.815193 1.218359 -0.326449
vn -1.0000 -0.0000 -0.0000
vn -0.0000 -0.0000 -1.0000
vn 1.0000 -0.0000 -0.0000
vn -0.0000 -0.0000 1.0000
vn -0.0000 -1.0000 -0.0000
vn -0.0000 1.0000 -0.0000
vn 0.4178 -0.0000 -0.9085
vn -0.0000 -0.9159 -0.4013
vn -0.4178 -0.0000 0.9085
vn -0.0000 0.9159 0.4013
vt 0.359055 0.075728
vt 0.287318 0.075728
vt 0.287318 0.000000
vt 0.359055 0.000000
vt 0.792548 0.071736
vt 0.792548 0.000000
vt 0.864353 0.000000
vt 0.864353 0.071736
vt 0.359055 0.378642
vt 0.287318 0.378642
vt 0.287318 0.302914
vt 0.359055 0.302914
vt 0.792813 0.361552
vt 0.792813 0.289815
vt 0.864353 0.289815
vt 0.864353 0.361552
vt 0.215489 0.309023
vt 0.287318 0.309023
vt 0.287318 0.384737
vt 0.215489 0.384737
vt 0.215754 0.611878
vt 0.287318 0.611878
vt 0.287318 0.687591
vt 0.215754 0.687591
vt 1.000000 0.000000
vt 1.000000 0.075728
vt 0.977588 0.075728
vt 0.977588 0.000000
vt 0.215489 0.157596
vt 0.287318 0.157596
vt 0.287318 0.233310
vt 0.215489 0.233310
vt 0.510580 0.732527
vt 0.510580 0.660790
vt 0.557532 0.660790
vt 0.557532 0.732527
vt 0.071540 0.742554
vt 0.071540 0.720141
vt 0.116522 0.720141
vt 0.116522 0.742554
vt 0.359055 0.302914
vt 0.287318 0.302914
vt 0.287318 0.227185
vt 0.359055 0.227185
vt 0.233045 0.742554
vt 0.161505 0.742554
vt 0.161505 0.720141
vt 0.233045 0.720141
vt 0.894315 0.655344
vt 0.894315 0.731057
vt 0.847347 0.731057
vt 0.847347 0.655344
vt 0.359055 0.605828
vt 0.287318 0.605828
vt 0.287318 0.530099
vt 0.359055 0.530099
vt 0.215489 0.081882
vt 0.287318 0.081882
vt 0.215754 0.384737
vt 0.287318 0.384737
vt 0.287318 0.460450
vt 0.215754 0.460450
vt 0.990036 0.378628
vt 0.990036 0.454341
vt 0.945037 0.454341
vt 0.945037 0.378628
vt 0.071830 0.384737
vt 0.143659 0.384737
vt 0.143659 0.460450
vt 0.071830 0.460450
vt 0.071564 0.081882
vt 0.143659 0.081882
vt 0.143659 0.157596
vt 0.071564 0.157596
vt 0.071564 0.233310
vt 0.143659 0.233310
vt 0.143659 0.309023
vt 0.071564 0.309023
vt 0.071830 0.536164
vt 0.143659 0.536164
vt 0.143659 0.611878
vt 0.071830 0.611878
vt 0.143659 0.687591
vt 0.071830 0.687591
vt 0.143659 0.384737
vt 0.071564 0.384737
vt 0.648938 0.361552
vt 0.648938 0.289815
vt 0.720743 0.289815
vt 0.720743 0.361552
vt 0.648673 0.071736
vt 0.648673 0.000000
vt 0.720743 0.000000
vt 0.720743 0.071736
vt 0.577134 0.361552
vt 0.577134 0.289815
vt 0.000000 0.611878
vt -0.000000 0.687591
vt 0.116522 0.742554
vt 0.116522 0.720141
vt 0.000000 0.742554
vt 0.000000 0.720141
vt 0.000000 0.384737
vt 0.000000 0.460450
vt 0.577134 0.071736
vt 0.577134 -0.000000
vt 0.000000 0.309023
vt 0.000000 0.384737
vt 0.000000 0.157596
vt 0.000000 0.233310
vt 0.000000 0.081882
vt 0.215754 0.536164
vt 0.720743 0.507176
vt 0.720743 0.434723
vt 0.792813 0.434723
vt 0.792813 0.507176
vt 0.577134 0.217361
vt 0.577134 0.144908
vt 0.648673 0.144908
vt 0.648673 0.217361
vt 0.792548 0.144908
vt 0.792548 0.217361
vt 0.789907 0.216680
vt 0.789907 0.144227
vt 0.577134 0.507176
vt 0.577134 0.434723
vt 0.648938 0.434723
vt 0.648938 0.507176
vt 0.945037 0.217361
vt 0.945037 0.289815
vt 0.904076 0.289815
vt 0.904076 0.217361
vt 0.071540 0.959915
vt 0.071540 0.887461
vt 0.116522 0.887461
vt 0.116522 0.959915
vt 0.504680 0.605828
vt 0.432226 0.605828
vt 0.432226 0.530099
vt 0.504680 0.530099
vt 0.510580 0.638378
vt 0.557532 0.638378
vt 0.504680 0.302914
vt 0.432226 0.302914
vt 0.432226 0.227185
vt 0.504680 0.227185
vt 0.918912 0.806771
vt 0.918912 0.731058
vt 0.963910 0.731058
vt 0.963910 0.806771
vt 0.775542 0.579630
vt 0.775542 0.612180
vt 0.728591 0.612180
vt 0.728591 0.579630
vt 0.864353 0.434723
vt 0.864353 0.507176
vt 0.504680 0.378642
vt 0.432226 0.378642
vt 0.432226 0.302914
vt 0.504680 0.302914
vt 0.864353 0.144908
vt 0.864353 0.217361
vt 0.504680 0.075728
vt 0.432226 0.075728
vt 0.432226 0.000000
vt 0.504680 0.000000
vt 0.577134 0.075729
vt 0.577134 0.000000
vt 0.792548 0.289815
vt 0.864353 0.289815
vt 0.577134 0.378642
vt 0.577134 0.302914
vt 0.792813 0.579630
vt 0.864353 0.579630
vt 0.577134 0.530099
vt 0.504680 0.454371
vt 0.577134 0.454371
vt 0.577134 0.227185
vt 0.504680 0.151457
vt 0.577134 0.151457
vt 0.577134 0.302914
vt 0.577134 0.605828
vt 0.648938 0.579630
vt 0.720743 0.579630
vt 0.945037 0.144908
vt 0.904076 0.144908
vt 0.577134 0.579630
vt 0.141049 0.080669
vt 0.212878 0.080669
vt 0.577134 0.289815
vt 0.648673 0.289815
vt 0.720743 0.144908
vt 0.161505 0.687591
vt 0.116522 0.687591
vt 0.775542 0.634593
vt 0.775542 0.706329
vt 0.728591 0.706329
vt 0.728591 0.634593
vt 0.161505 0.814290
vt 0.116522 0.814290
vt 0.894315 0.579630
vt 0.847347 0.579630
vt 0.864353 0.144908
vt 0.864353 0.072454
vt 0.905314 0.072454
vt 0.905314 0.144908
vt 0.864353 -0.000000
vt 0.905314 -0.000000
vt 0.557532 0.678963
vt 0.557532 0.606509
vt 0.560173 0.605828
vt 0.560173 0.678282
vt 0.792838 0.933837
vt 0.721009 0.933837
vt 0.723619 0.932623
vt 0.795449 0.932623
vt 0.557532 0.751417
vt 0.560173 0.750736
vt 0.789907 0.289134
vt 0.905314 0.434723
vt 0.905314 0.362269
vt 0.945037 0.362269
vt 0.945037 0.434723
vt 0.864353 0.217361
vt 0.864353 0.144908
vt 0.905314 0.289815
vt 0.945037 0.289815
vt 0.945037 0.072454
vt 0.945037 0.144908
vt 0.359413 0.958820
vt 0.287318 0.958820
vt 0.287318 0.917867
vt 0.359413 0.917867
vt 0.945037 0.507176
vt 0.945037 0.579630
vt 0.904076 0.579630
vt 0.904076 0.507176
vt 0.864353 0.434723
vt 0.864353 0.362269
vt 0.723619 0.891670
vt 0.795449 0.891670
vt 0.071564 0.040929
vt 0.143659 0.040929
vt 0.141049 0.039716
vt 0.212878 0.039716
vt 0.864353 0.289815
vt 0.945037 0.434723
vt 0.904076 0.434723
vt 0.577134 0.924408
vt 0.577134 0.851954
vt 0.649204 0.851954
vt 0.649204 0.924408
vt 0.577134 0.996862
vt 0.649204 0.996862
vt 0.649204 0.924408
vt 0.649204 0.851954
vt 0.721009 0.851954
vt 0.721009 0.924408
vt 0.649204 0.996862
vt 0.721009 0.996862
vt 0.864353 0.289815
vt 0.287319 0.878152
vt 0.359413 0.878152
vt 0.723619 0.851954
vt 0.795449 0.851954
vt 0.864353 0.579630
vt 0.141049 0.000000
vt 0.212878 0.000000
vt 0.864353 0.434723
vt 0.945037 -0.000000
vt 0.071564 0.001214
vt 0.143659 0.001214
vt 0.847347 0.612180
vt 0.847347 0.579630
vt 0.945037 0.075728
vt 0.945037 0.000000
vt 0.071540 0.814290
vt 0.000000 0.687591
vt 0.071540 0.687591
vt 0.438775 0.660790
vt 0.438775 0.638378
vt 1.000000 0.151457
vt 1.000000 0.227185
vt 0.977588 0.227185
vt 0.977588 0.151457
vt 0.233045 0.839018
vt 0.233045 0.763305
vt 0.280013 0.763305
vt 0.280013 0.839018
vt 0.990036 0.302914
vt 0.945037 0.302914
vt 1.000000 0.151457
vt 0.977588 0.151457
vt 1.000000 0.302914
vt 0.977588 0.302914
vt 0.847347 0.634593
vt 0.510580 0.878152
vt 0.510580 0.805698
vt 0.557532 0.805698
vt 0.557532 0.878152
vt 0.847347 0.731058
vt 0.847347 0.806771
vt 0.918912 0.882485
vt 0.847347 0.882485
vt 0.966145 0.579630
vt 0.966145 0.655344
vt 0.966145 0.731057
vt 0.233045 0.687591
vt 0.510580 0.605828
vt 0.557532 0.605828
vt 0.945037 0.151457
vt 0.945037 0.227185
vt 0.945037 0.151457
vt 0.438775 0.605828
vt 0.775542 0.779500
vt 0.775542 0.851954
vt 0.728591 0.851954
vt 0.728591 0.779500
vt 0.577134 0.706329
vt 0.577134 0.634593
vt 0.652862 0.634593
vt 0.652862 0.706329
vt 0.652862 0.851954
vt 0.652862 0.779500
vt 0.577134 0.851954
vt 0.577134 0.779500
vt 0.652862 0.612180
vt 0.728591 0.612180
vt 0.577134 0.612180
vt 0.652862 0.579630
vt 0.728591 0.579630
vt 0.280013 0.687591
vt 0.287318 0.732527
vt 0.287318 0.660790
vt 0.363047 0.660790
vt 0.363047 0.732527
vt 0.438775 0.660791
vt 0.438775 0.732527
vt 0.287318 0.638378
vt 0.363047 0.638378
vt 0.363047 0.878152
vt 0.363047 0.805698
vt 0.438775 0.805698
vt 0.438775 0.878152
vt 0.287318 0.878152
vt 0.287318 0.805698
vt 0.287318 0.605828
vt 0.363047 0.605828
vt 0.438775 0.605828
vt 0.161505 0.887461
vt 0.116522 0.887461
vt 0.963910 0.882485
vt 0.116522 0.687591
vt 0.161505 0.959915
vt 0.116522 0.959915
s 0
usemtl Material
f 99/1/1 28/2/1 17/3/1 93/4/1
f 103/5/2 42/6/2 21/7/2 94/8/2
f 97/9/3 25/10/3 19/11/3 95/12/3
f 105/13/4 53/14/4 15/15/4 92/16/4
f 50/17/5 27/18/5 18/19/5 43/20/5
f 60/21/6 26/22/6 15/23/6 53/24/6
f 46/25/1 44/26/1 138/27/1 142/28/1
f 51/29/5 29/30/5 23/31/5 49/32/5
f 98/33/2 31/34/2 158/35/2 165/36/2
f 26/37/4 136/38/4 178/39/4 176/40/4
f 92/41/1 15/42/1 26/43/1 96/44/1
f 61/45/2 28/46/2 141/47/2 145/48/2
f 49/32/5 23/31/5 27/18/5 50/17/5
f 149/49/6 151/50/6 175/51/6 174/52/6
f 94/53/3 21/54/3 31/55/3 98/56/3
f 47/57/5 20/58/5 29/30/5 51/29/5
f 57/59/6 17/60/6 28/61/6 61/62/6
f 80/63/5 81/64/5 187/65/5 186/66/5
f 42/67/6 33/68/6 41/69/6 46/70/6
f 52/71/5 32/72/5 40/73/5 56/74/5
f 54/75/5 37/76/5 39/77/5 55/78/5
f 44/79/6 36/80/6 38/81/6 45/82/6
f 56/74/5 40/73/5 37/76/5 54/75/5
f 46/70/6 41/69/6 36/80/6 44/79/6
f 45/82/6 38/81/6 35/83/6 48/84/6
f 55/78/5 39/77/5 34/85/5 58/86/5
f 102/87/4 48/88/4 35/89/4 100/90/4
f 104/91/2 57/92/2 33/93/2 101/94/2
f 95/95/4 19/96/4 48/88/4 102/87/4
f 25/97/6 45/82/6 48/84/6 19/98/6
f 141/47/2 28/46/2 179/99/2 191/100/2
f 26/37/4 60/101/4 144/102/4 136/38/4
f 21/103/6 42/67/6 46/70/6 31/104/6
f 32/72/5 47/57/5 51/29/5 40/73/5
f 37/76/5 49/32/5 50/17/5 39/77/5
f 40/73/5 51/29/5 49/32/5 37/76/5
f 39/77/5 50/17/5 43/20/5 34/85/5
f 101/94/2 33/93/2 42/6/2 103/5/2
f 93/105/2 17/106/2 57/92/2 104/91/2
f 24/107/5 55/78/5 58/86/5 14/108/5
f 30/109/5 56/74/5 54/75/5 22/110/5
f 22/110/5 54/75/5 55/78/5 24/107/5
f 16/111/5 52/71/5 56/74/5 30/109/5
f 33/68/6 57/59/6 61/62/6 41/69/6
f 36/80/6 59/112/6 60/21/6 38/81/6
f 41/69/6 61/62/6 59/112/6 36/80/6
f 38/81/6 60/21/6 53/24/6 35/83/6
f 100/90/4 35/89/4 53/14/4 105/13/4
f 85/113/4 70/114/4 75/115/4 90/116/4
f 76/117/2 63/118/2 74/119/2 89/120/2
f 73/121/7 88/122/7 109/123/7 111/124/7
f 78/125/4 65/126/4 72/127/4 87/128/4
f 109/129/3 106/130/3 118/131/3 121/132/3
f 87/128/4 72/127/4 70/114/4 85/113/4
f 81/133/4 66/134/4 183/135/4 187/136/4
f 77/137/3 64/138/3 68/139/3 83/140/3
f 31/34/2 137/141/2 170/142/2 158/35/2
f 91/143/1 62/144/1 66/145/1 81/146/1
f 147/147/6 153/148/6 193/149/6 192/150/6
f 151/151/4 139/152/4 172/153/4 175/154/4
f 90/116/4 75/115/4 62/155/4 91/156/4
f 82/157/3 67/158/3 65/159/3 78/160/3
f 88/122/2 73/121/2 64/161/2 77/162/2
f 84/163/1 69/164/1 63/165/1 76/166/1
f 30/167/1 84/163/1 76/166/1 16/168/1
f 47/169/2 88/122/2 77/162/2 20/170/2
f 27/171/3 82/157/3 78/160/3 18/172/3
f 58/173/4 90/116/4 91/156/4 14/174/4
f 29/175/3 83/140/3 79/176/3 23/177/3
f 24/178/1 81/146/1 80/179/1 22/180/1
f 14/181/1 91/143/1 81/146/1 24/178/1
f 23/177/3 79/176/3 82/157/3 27/171/3
f 20/182/3 77/137/3 83/140/3 29/175/3
f 22/180/1 80/179/1 84/163/1 30/167/1
f 43/183/4 87/128/4 85/113/4 34/184/4
f 111/185/3 109/129/3 121/132/3 123/186/3
f 18/187/4 78/125/4 87/128/4 43/183/4
f 47/57/8 32/72/8 107/188/8 106/189/8
f 16/190/2 76/117/2 89/120/2 52/191/2
f 34/184/4 85/113/4 90/116/4 58/173/4
f 70/114/4 100/90/4 105/13/4 75/115/4
f 63/118/2 93/105/2 104/91/2 74/119/2
f 71/192/2 101/94/2 103/5/2 73/121/2
f 65/126/4 95/95/4 102/87/4 72/127/4
f 74/119/2 104/91/2 101/94/2 71/192/2
f 72/127/4 102/87/4 100/90/4 70/114/4
f 153/193/2 141/47/2 191/100/2 193/194/2
f 64/138/3 94/53/3 98/56/3 68/139/3
f 25/195/4 97/196/4 163/197/4 160/198/4
f 62/144/1 92/41/1 96/44/1 66/145/1
f 28/46/2 99/199/2 184/200/2 179/99/2
f 148/201/6 149/49/6 174/52/6 173/202/6
f 75/115/4 105/13/4 92/16/4 62/155/4
f 67/158/3 97/9/3 95/12/3 65/159/3
f 73/121/2 103/5/2 94/8/2 64/161/2
f 69/164/1 99/1/1 93/4/1 63/165/1
f 107/203/1 108/204/1 120/205/1 119/206/1
f 108/204/1 110/207/1 122/208/1 120/205/1
f 86/209/9 71/210/9 110/211/9 108/212/9
f 71/213/10 73/214/10 111/215/10 110/216/10
f 32/217/9 86/209/9 108/212/9 107/218/9
f 88/122/7 47/169/7 106/219/7 109/123/7
f 114/220/1 115/221/1 127/222/1 126/223/1
f 123/186/3 121/132/3 133/224/3 135/225/3
f 115/221/1 116/226/1 128/227/1 127/222/1
f 119/206/1 120/205/1 132/228/1 131/229/1
f 74/230/6 71/231/6 117/232/6 116/233/6
f 86/234/3 32/235/3 113/236/3 112/237/3
f 52/238/1 89/239/1 115/221/1 114/220/1
f 110/216/6 111/215/6 123/240/6 122/241/6
f 32/72/5 52/71/5 114/242/5 113/243/5
f 106/189/5 107/188/5 119/244/5 118/245/5
f 89/239/1 74/246/1 116/226/1 115/221/1
f 71/247/3 86/234/3 112/237/3 117/248/3
f 127/249/2 128/250/2 129/251/2 124/252/2
f 126/253/2 127/249/2 124/252/2 125/254/2
f 132/255/2 134/256/2 135/257/2 133/258/2
f 131/259/2 132/255/2 133/258/2 130/260/2
f 121/132/3 118/131/3 130/261/3 133/224/3
f 116/233/6 117/232/6 129/262/6 128/263/6
f 122/241/6 123/240/6 135/264/6 134/265/6
f 112/237/3 113/236/3 125/266/3 124/156/3
f 118/245/5 119/244/5 131/267/5 130/268/5
f 117/248/3 112/237/3 124/156/3 129/269/3
f 120/205/1 122/208/1 134/270/1 132/228/1
f 113/243/5 114/242/5 126/271/5 125/272/5
f 140/273/4 139/152/4 151/151/4 152/274/4
f 142/28/1 138/27/1 150/275/1 154/276/1
f 66/134/4 96/277/4 182/200/4 183/135/4
f 136/38/4 144/102/4 156/278/4 146/279/4
f 31/34/2 46/280/2 142/281/2 137/141/2
f 60/282/3 59/283/3 143/284/3 144/285/3
f 82/286/5 79/287/5 167/288/5 168/289/5
f 84/290/5 80/63/5 186/66/5 188/291/5
f 44/26/1 45/292/1 140/293/1 138/27/1
f 59/283/3 61/294/3 145/295/3 143/284/3
f 45/296/4 25/195/4 139/152/4 140/273/4
f 83/297/2 68/298/2 166/299/2 169/300/2
f 157/301/6 153/148/6 147/147/6 155/302/6
f 155/302/6 147/147/6 146/303/6 156/304/6
f 148/201/6 154/305/6 150/306/6 149/49/6
f 149/49/6 150/306/6 152/307/6 151/50/6
f 145/48/2 141/47/2 153/193/2 157/308/2
f 137/141/2 148/309/2 173/310/2 170/142/2
f 138/27/1 140/293/1 152/311/1 150/275/1
f 96/277/4 26/37/4 176/40/4 182/200/4
f 144/285/3 143/284/3 155/312/3 156/313/3
f 137/141/2 142/281/2 154/314/2 148/309/2
f 143/284/3 145/295/3 157/291/3 155/312/3
f 67/315/4 82/316/4 168/317/4 164/318/4
f 165/319/3 158/320/3 159/321/3 161/322/3
f 161/322/3 159/321/3 160/198/3 163/197/3
f 167/323/3 162/324/3 164/318/3 168/317/3
f 169/325/3 166/326/3 162/324/3 167/323/3
f 162/324/3 161/322/3 163/197/3 164/318/3
f 166/326/3 165/319/3 161/322/3 162/324/3
f 160/198/3 159/321/3 171/327/3 172/328/3
f 159/321/3 158/320/3 170/329/3 171/327/3
f 171/327/3 170/329/3 173/187/3 174/330/3
f 172/328/3 171/327/3 174/330/3 175/331/3
f 97/196/4 67/315/4 164/318/4 163/197/4
f 79/287/5 83/308/5 169/332/5 167/288/5
f 139/152/4 25/195/4 160/198/4 172/153/4
f 68/298/2 98/33/2 165/36/2 166/299/2
f 182/333/1 176/334/1 177/335/1 180/336/1
f 180/336/1 177/335/1 179/337/1 184/338/1
f 177/335/1 176/334/1 178/339/1 189/340/1
f 186/341/1 181/342/1 185/343/1 188/344/1
f 187/345/1 183/346/1 181/342/1 186/341/1
f 181/342/1 180/336/1 184/338/1 185/343/1
f 183/346/1 182/333/1 180/336/1 181/342/1
f 189/340/1 178/339/1 190/347/1 192/348/1
f 179/337/1 177/335/1 189/340/1 191/281/1
f 191/281/1 189/340/1 192/348/1 193/349/1
f 99/199/2 69/350/2 185/351/2 184/200/2
f 146/303/6 147/147/6 192/150/6 190/352/6
f 136/38/4 146/279/4 190/353/4 178/39/4
f 69/350/2 84/354/2 188/355/2 185/351/2
l 8 1
